# xmcd
#
# Track frame offsets:
#	150
#	18987
#	58287
#	91989
#	128260
#	166727
#	205213
#	227760
#
# Disc length: 3368 seconds
#
# Revision: 0
# Processed by: cddbd v1.5.2PL0 Copyright (c) Steve Scherf et al.
# Submitted via: EasyCDDAExtractor 12.0.0.1
#
DISCID=5c0d2608
DTITLE=Disco Evangelists - -
DYEAR=1993
DGENRE=Dance
TTITLE0=De Niro (Radio Edit)
TTITLE1=De Niro (The Journey)
TTITLE2=De Niro (Dirty Funker Remix)
TTITLE3=De Niro (Doublefunk Remix)
TTITLE4=De Niro (Full Circle Remix)
TTITLE5=De Niro (Spaceflight Remix)
TTITLE6=Choirs In Vietnam Reprise
TTITLE7=DATA
EXTD=
EXTT0=
EXTT1=
EXTT2=
EXTT3=
EXTT4=
EXTT5=
EXTT6=
EXTT7=
PLAYORDER=
